<svg width="1460" height="623" viewBox="0 0 1460 623" fill="none" xmlns="http://www.w3.org/2000/svg">
<path d="M9 89C9 58.6243 33.6243 34 64 34H1395C1425.38 34 1450 58.6243 1450 89V536H9V89Z" fill="url(#paint0_linear_651_111)"/>
<path d="M16 107C16 76.6243 40.6243 52 71 52H1390C1420.38 52 1445 76.6243 1445 107V554H16V107Z" fill="url(#paint1_linear_651_111)"/>
<g filter="url(#filter0_dddd_651_111)">
<path d="M184 2L215.149 14.3846L245 2V72H184V2Z" fill="#FE7D01"/>
</g>
<path d="M16 122C16 91.6243 40.6243 67 71 67H1390C1420.38 67 1445 91.6243 1445 122V569H16V122Z" fill="url(#paint2_linear_651_111)"/>
<path d="M16 141C16 110.624 40.6243 86 71 86H1390C1420.38 86 1445 110.624 1445 141V588H16V141Z" fill="url(#paint3_linear_651_111)"/>
<path d="M1395 106C1428.14 106 1455 132.863 1455 166V618H5V166C5 132.863 31.8629 106 65 106H1395Z" fill="#0193DC"/>
<path d="M1395 106C1428.14 106 1455 132.863 1455 166V618H5V166C5 132.863 31.8629 106 65 106H1395Z" stroke="#0193DC" stroke-width="10"/>
<defs>
<filter id="filter0_dddd_651_111" x="159" y="0" width="88" height="101" filterUnits="userSpaceOnUse" color-interpolation-filters="sRGB">
<feFlood flood-opacity="0" result="BackgroundImageFix"/>
<feColorMatrix in="SourceAlpha" type="matrix" values="0 0 0 0 0 0 0 0 0 0 0 0 0 0 0 0 0 0 127 0" result="hardAlpha"/>
<feOffset dx="-1" dy="1"/>
<feGaussianBlur stdDeviation="1.5"/>
<feColorMatrix type="matrix" values="0 0 0 0 0 0 0 0 0 0 0 0 0 0 0 0 0 0 0.2 0"/>
<feBlend mode="normal" in2="BackgroundImageFix" result="effect1_dropShadow_651_111"/>
<feColorMatrix in="SourceAlpha" type="matrix" values="0 0 0 0 0 0 0 0 0 0 0 0 0 0 0 0 0 0 127 0" result="hardAlpha"/>
<feOffset dx="-4" dy="5"/>
<feGaussianBlur stdDeviation="3"/>
<feColorMatrix type="matrix" values="0 0 0 0 0 0 0 0 0 0 0 0 0 0 0 0 0 0 0.17 0"/>
<feBlend mode="normal" in2="effect1_dropShadow_651_111" result="effect2_dropShadow_651_111"/>
<feColorMatrix in="SourceAlpha" type="matrix" values="0 0 0 0 0 0 0 0 0 0 0 0 0 0 0 0 0 0 127 0" result="hardAlpha"/>
<feOffset dx="-9" dy="11"/>
<feGaussianBlur stdDeviation="4"/>
<feColorMatrix type="matrix" values="0 0 0 0 0 0 0 0 0 0 0 0 0 0 0 0 0 0 0.1 0"/>
<feBlend mode="normal" in2="effect2_dropShadow_651_111" result="effect3_dropShadow_651_111"/>
<feColorMatrix in="SourceAlpha" type="matrix" values="0 0 0 0 0 0 0 0 0 0 0 0 0 0 0 0 0 0 127 0" result="hardAlpha"/>
<feOffset dx="-15" dy="19"/>
<feGaussianBlur stdDeviation="5"/>
<feColorMatrix type="matrix" values="0 0 0 0 0 0 0 0 0 0 0 0 0 0 0 0 0 0 0.03 0"/>
<feBlend mode="normal" in2="effect3_dropShadow_651_111" result="effect4_dropShadow_651_111"/>
<feBlend mode="normal" in="SourceGraphic" in2="effect4_dropShadow_651_111" result="shape"/>
</filter>
<linearGradient id="paint0_linear_651_111" x1="729.5" y1="24.5" x2="729.5" y2="76.5" gradientUnits="userSpaceOnUse">
<stop stop-color="#0193DC"/>
<stop offset="1" stop-color="#014F76"/>
</linearGradient>
<linearGradient id="paint1_linear_651_111" x1="730.5" y1="52" x2="730.5" y2="96.5" gradientUnits="userSpaceOnUse">
<stop stop-color="#FFF4D9"/>
<stop offset="1" stop-color="#9D9176"/>
</linearGradient>
<linearGradient id="paint2_linear_651_111" x1="730.5" y1="67" x2="730.5" y2="111.5" gradientUnits="userSpaceOnUse">
<stop stop-color="#FFF4D9"/>
<stop offset="1" stop-color="#9D9176"/>
</linearGradient>
<linearGradient id="paint3_linear_651_111" x1="730.5" y1="86" x2="730.5" y2="130.5" gradientUnits="userSpaceOnUse">
<stop stop-color="#FFF4D9"/>
<stop offset="1" stop-color="#9D9176"/>
</linearGradient>
</defs>
</svg>
