<svg width="98" height="98" viewBox="0 0 98 98" fill="none" xmlns="http://www.w3.org/2000/svg">
<path d="M49.1007 24.2515L56.7857 31.4128H66.3897L66.3897 41.0167L73.551 48.7018L66.3897 56.3868L66.3897 65.9907L56.7857 65.9907L49.1007 73.1521L41.4156 65.9907L31.8117 65.9907V56.3868L24.6504 48.7018L31.8117 41.0167V31.4128H41.4156L49.1007 24.2515Z" fill="#0398C9"/>
<path d="M47.707 35.582V40.5518H50.4873V35.582H52.4756V40.5518H52.4775V42.54H45.7197V37.7686H42.9355V52.0811H40.749V52.0801H35.9766V40.5508H38.1631V50.0928H40.749V35.582H47.707Z" fill="#FFFEFF"/>
<path d="M35.9785 35.582V37.5699H37.9663V35.582H35.9785Z" fill="#FFFEFF"/>
<path d="M60.0312 35.582V61.8214H62.2179V35.582H60.0312Z" fill="#FFFEFF"/>
<path d="M45.7168 45.3228V47.3106H47.7046V45.3228H45.7168Z" fill="#FFFEFF"/>
<path d="M50.4902 45.3228V47.3106H52.4781V45.3228H50.4902Z" fill="#FFFEFF"/>
<path d="M57.4443 52.2803H52.6738V54.8643H57.4443V61.8213H50.4873V57.0508H47.7041V61.8213H35.9766V54.8643H38.1631V59.6348H45.7168V50.0938H47.7041V54.8643H50.4873V50.0938H55.2578V35.582H57.4443V52.2803ZM52.6748 59.6348H55.2588V57.0508H52.6748V59.6348Z" fill="white"/>
<path d="M30.416 27.8301L37.1746 27.8301C38.4921 27.8301 41.1503 28.8981 41.1503 30.2155H30.416V27.8301Z" fill="#F4D406"/>
<path d="M67.7207 70.3687L60.9621 70.3687C59.6447 70.3687 56.9864 69.3007 56.9864 67.9833H67.7207V70.3687Z" fill="#F4D406"/>
<path d="M28.0293 67.5215L28.0293 60.7629C28.0293 59.4454 29.0973 56.7872 30.4147 56.7872L30.4147 67.5215L28.0293 67.5215Z" fill="#F4D406"/>
<path d="M70.168 67.5215L70.168 60.7629C70.168 59.4454 69.1 56.7872 67.7826 56.7872L67.7826 67.5215L70.168 67.5215Z" fill="#F4D406"/>
<path d="M67.7207 27.8301L60.9621 27.8301C59.6447 27.8301 56.9864 28.8981 56.9864 30.2155H67.7207V27.8301Z" fill="#F4D406"/>
<path d="M30.416 70.3687L37.1746 70.3687C38.4921 70.3687 41.1503 69.3007 41.1503 67.9833H30.416V70.3687Z" fill="#F4D406"/>
<path d="M28.0293 30.2153L28.0293 36.974C28.0293 38.2914 29.0973 40.9496 30.4147 40.9496L30.4147 30.2153L28.0293 30.2153Z" fill="#F4D406"/>
<path d="M70.168 30.2153L70.168 36.974C70.168 38.2914 69.1 40.9496 67.7826 40.9496L67.7826 30.2153L70.168 30.2153Z" fill="#F4D406"/>
<path d="M47.3438 20.8726L42.5647 25.6516C41.6331 26.5832 40.5086 29.218 41.4402 30.1496L49.0305 22.5593L47.3438 20.8726Z" fill="#F4D406"/>
<path d="M50.7891 77.3267L55.5681 72.5476C56.4997 71.616 57.6242 68.9812 56.6926 68.0496L49.1023 75.6399L50.7891 77.3267Z" fill="#F4D406"/>
<path d="M21.0723 50.5879L25.8513 55.367C26.7829 56.2985 29.4177 57.423 30.3493 56.4914L22.759 48.9012L21.0723 50.5879Z" fill="#F4D406"/>
<path d="M77.1309 50.5879L72.3518 55.367C71.4202 56.2985 68.7854 57.423 67.8538 56.4914L75.4441 48.9012L77.1309 50.5879Z" fill="#F4D406"/>
<path d="M50.7891 20.8726L55.5681 25.6516C56.4997 26.5832 57.6242 29.218 56.6926 30.1496L49.1023 22.5593L50.7891 20.8726Z" fill="#F4D406"/>
<path d="M47.3438 77.3267L42.5647 72.5476C41.6331 71.616 40.5086 68.9812 41.4402 68.0496L49.0305 75.6399L47.3438 77.3267Z" fill="#F4D406"/>
<path d="M21.0723 47.1489L25.8513 42.3699C26.7829 41.4383 29.4177 40.3138 30.3493 41.2454L22.759 48.8357L21.0723 47.1489Z" fill="#F4D406"/>
<path d="M77.1309 47.1489L72.3518 42.3699C71.4202 41.4383 68.7854 40.3138 67.8538 41.2454L75.4441 48.8357L77.1309 47.1489Z" fill="#F4D406"/>
<circle cx="37.7708" cy="21.6673" r="2.98174" fill="#FE7D01"/>
<circle cx="37.7708" cy="76.1331" r="2.98174" fill="#FE7D01"/>
<circle cx="22.0632" cy="37.3719" r="2.98174" transform="rotate(90 22.0632 37.3719)" fill="#FE7D01"/>
<circle cx="76.1354" cy="37.3719" r="2.98174" transform="rotate(90 76.1354 37.3719)" fill="#FE7D01"/>
<circle cx="60.4329" cy="76.1331" r="2.98174" fill="#FE7D01"/>
<circle cx="60.4329" cy="21.6673" r="2.98174" fill="#FE7D01"/>
<circle cx="22.0632" cy="60.0325" r="2.98174" transform="rotate(90 22.0632 60.0325)" fill="#FE7D01"/>
<circle cx="76.1354" cy="60.0325" r="2.98174" transform="rotate(90 76.1354 60.0325)" fill="#FE7D01"/>
<path d="M10.8728 57.2655L6.01215 57.9971L5.72352 56.0794C5.66803 55.7108 5.69117 55.3861 5.79293 55.1054C5.89312 54.825 6.05717 54.598 6.2851 54.4246C6.51121 54.2497 6.78565 54.1381 7.10843 54.0895C7.4312 54.0409 7.72648 54.0676 7.99427 54.1697C8.26205 54.2718 8.48466 54.4446 8.66208 54.6881C8.83927 54.9301 8.95596 55.2377 9.01216 55.6111L9.19613 56.8334L8.37258 56.9574L8.21362 55.9012C8.18385 55.7035 8.1253 55.5456 8.03798 55.4277C7.94883 55.3084 7.83858 55.2263 7.70722 55.1814C7.57404 55.1351 7.42755 55.1239 7.26775 55.148C7.10636 55.1723 6.97042 55.2259 6.85994 55.3089C6.74763 55.3905 6.66801 55.5012 6.62109 55.6409C6.57258 55.7809 6.56333 55.9506 6.59333 56.15L6.69764 56.843L10.7181 56.2379L10.8728 57.2655ZM10.073 51.5355L5.15763 51.555L5.14995 49.6157C5.14849 49.2445 5.21363 48.9275 5.3454 48.6645C5.47556 48.4 5.66117 48.1985 5.90223 48.0599C6.14168 47.9198 6.42381 47.849 6.74862 47.8477C7.07503 47.8465 7.35612 47.9157 7.59188 48.0556C7.82604 48.1955 8.00605 48.3988 8.13191 48.6655C8.25777 48.9306 8.32144 49.252 8.32294 49.6296L8.32808 50.928L7.49286 50.9313L7.48838 49.8009C7.4876 49.6025 7.45974 49.4378 7.40482 49.3068C7.3499 49.1758 7.26791 49.0785 7.15886 49.015C7.0498 48.9498 6.91446 48.9175 6.75286 48.9182C6.58965 48.9188 6.45218 48.9522 6.34044 49.0182C6.22869 49.0827 6.14428 49.1814 6.0872 49.3144C6.02852 49.4459 5.99957 49.6116 6.00036 49.8116L6.00314 50.5124L10.0688 50.4963L10.073 51.5355ZM7.82559 48.8899L10.0576 47.6594L10.0622 48.8067L7.83003 50.0108L7.82559 48.8899ZM10.1116 45.6919L5.24509 45.0006L5.71093 41.7214L6.55924 41.8419L6.23956 44.0922L7.39916 44.2569L7.69487 42.1753L8.54318 42.2958L8.24747 44.3774L9.40944 44.5425L9.73047 42.2827L10.5788 42.4032L10.1116 45.6919ZM8.35756 36.6547C8.16651 36.6179 7.99886 36.6541 7.85461 36.7631C7.71035 36.8721 7.60266 37.0462 7.53152 37.2855C7.48319 37.448 7.46538 37.5922 7.4781 37.7178C7.48929 37.843 7.52587 37.9473 7.58784 38.0309C7.65026 38.1128 7.73209 38.1689 7.83331 38.199C7.91675 38.2271 7.99561 38.2314 8.0699 38.2117C8.14463 38.1906 8.21527 38.1523 8.2818 38.097C8.3468 38.0412 8.40962 37.973 8.47026 37.8926C8.52937 37.8117 8.58571 37.7233 8.63927 37.6273L8.86635 37.2341C8.97346 37.0423 9.0909 36.8719 9.21866 36.7229C9.34641 36.574 9.48497 36.4532 9.63432 36.3608C9.78367 36.2683 9.94453 36.2101 10.1169 36.1862C10.2897 36.1608 10.4745 36.1765 10.6713 36.2334C10.9591 36.3206 11.1872 36.4686 11.3556 36.6772C11.5228 36.8839 11.6241 37.141 11.6595 37.4487C11.6939 37.7543 11.654 38.0989 11.54 38.4823C11.4269 38.8626 11.2701 39.1766 11.0697 39.4241C10.8697 39.6702 10.6319 39.8382 10.3564 39.9282C10.0799 40.0162 9.77097 40.0137 9.42974 39.9206L9.71634 38.9567C9.8775 38.9929 10.0228 38.9869 10.1524 38.9386C10.2808 38.8883 10.392 38.8037 10.4858 38.6847C10.5785 38.5637 10.6504 38.4173 10.7015 38.2455C10.7516 38.0768 10.7707 37.923 10.7585 37.7842C10.7468 37.6439 10.7075 37.5262 10.6406 37.4312C10.5737 37.3362 10.4835 37.2718 10.37 37.238C10.2642 37.2066 10.1659 37.2116 10.0751 37.253C9.98481 37.2929 9.89656 37.3652 9.81038 37.4698C9.72466 37.5728 9.63555 37.7041 9.54307 37.8635L9.26171 38.3382C9.04698 38.7067 8.80266 38.9755 8.52874 39.1444C8.25483 39.3134 7.94402 39.3453 7.59633 39.2403C7.31061 39.157 7.08395 39.007 6.91637 38.7902C6.74924 38.5719 6.64599 38.31 6.60662 38.0045C6.56725 37.699 6.59863 37.3745 6.70078 37.031C6.80474 36.6813 6.9553 36.3939 7.15245 36.1687C7.35006 35.942 7.57711 35.7875 7.83362 35.7052C8.09012 35.6229 8.35939 35.6211 8.64142 35.7L8.35756 36.6547ZM11.6839 29.3405L11.2281 30.2878C11.0972 30.2462 10.9714 30.2291 10.8506 30.2367C10.7283 30.2436 10.6132 30.2725 10.5052 30.3236C10.3972 30.3746 10.2988 30.4462 10.21 30.5385C10.1219 30.6293 10.0474 30.7381 9.98634 30.865C9.87605 31.0942 9.83694 31.3213 9.86899 31.5463C9.89961 31.7705 10.0005 31.9815 10.1717 32.1793C10.3415 32.3764 10.5799 32.5488 10.887 32.6965C11.2028 32.8484 11.4906 32.9292 11.7506 32.9389C12.0112 32.947 12.2372 32.8924 12.4286 32.775C12.6201 32.6576 12.7696 32.4871 12.8771 32.2636C12.9374 32.1382 12.9767 32.0141 12.9948 31.8915C13.0137 31.7674 13.0115 31.6483 12.9883 31.5341C12.9637 31.4193 12.9184 31.3123 12.8525 31.2131C12.7872 31.1124 12.7007 31.0229 12.5929 30.9444L13.0529 29.9991C13.2444 30.1215 13.4111 30.2771 13.5528 30.466C13.6937 30.6528 13.7989 30.8641 13.8684 31.0999C13.9371 31.3336 13.9602 31.5844 13.9378 31.8524C13.9147 32.1183 13.8348 32.3932 13.6981 32.6773C13.5081 33.0723 13.2487 33.3826 12.9201 33.608C12.5922 33.832 12.2155 33.9526 11.7899 33.9699C11.3651 33.9856 10.9118 33.8777 10.4302 33.646C9.94722 33.4136 9.57998 33.1251 9.32854 32.7804C9.0771 32.4357 8.93762 32.065 8.9101 31.6683C8.88113 31.2708 8.96029 30.8774 9.14758 30.4881C9.27105 30.2315 9.42155 30.0109 9.59908 29.8264C9.7773 29.6405 9.97655 29.4957 10.1968 29.3922C10.4156 29.2879 10.6502 29.2303 10.9005 29.2194C11.1515 29.2069 11.4126 29.2473 11.6839 29.3405ZM15.5584 28.8183L11.5419 25.9848L12.1409 25.1356L13.7981 26.3047L15.0143 24.5808L13.3571 23.4117L13.9547 22.5645L17.9712 25.398L17.3736 26.2452L15.7144 25.0747L14.4983 26.7986L16.1574 27.9691L15.5584 28.8183ZM20.7804 18.6565C21.1602 19.0348 21.4116 19.4286 21.5345 19.838C21.6587 20.2462 21.6679 20.6438 21.5623 21.031C21.4567 21.4159 21.2509 21.7619 20.9449 22.0691C20.6366 22.3786 20.2896 22.5863 19.904 22.6923C19.5184 22.7982 19.1213 22.7899 18.7126 22.6674C18.3039 22.5449 17.9103 22.295 17.5317 21.9179C17.1519 21.5396 16.9 21.1463 16.7759 20.7381C16.6518 20.3299 16.6425 19.9334 16.7481 19.5485C16.8526 19.1625 17.059 18.8148 17.3672 18.5053C17.6733 18.1981 18.0191 17.9915 18.4047 17.8855C18.7903 17.7773 19.1874 17.7845 19.5961 17.907C20.0059 18.0284 20.4007 18.2782 20.7804 18.6565ZM20.0368 19.403C19.7909 19.158 19.5467 18.9881 19.3044 18.8936C19.0632 18.7979 18.8329 18.7729 18.6135 18.8185C18.3941 18.8642 18.1958 18.976 18.0185 19.154C17.8412 19.332 17.7302 19.5308 17.6853 19.7504C17.6405 19.9699 17.6658 20.2007 17.7613 20.4426C17.858 20.6834 18.0293 20.9264 18.2753 21.1714C18.5213 21.4164 18.7648 21.5868 19.006 21.6825C19.2483 21.7771 19.4792 21.8015 19.6986 21.7558C19.918 21.7102 20.1163 21.5983 20.2936 21.4204C20.4709 21.2424 20.582 21.0436 20.6268 20.824C20.6716 20.6045 20.6457 20.3743 20.5491 20.1335C20.4536 19.8915 20.2828 19.648 20.0368 19.403ZM26.3735 14.2858C26.6833 14.7232 26.8639 15.1541 26.9154 15.5784C26.9682 16.0018 26.9096 16.3952 26.7396 16.7587C26.5699 17.12 26.3082 17.4259 25.9543 17.6765C25.5979 17.929 25.2206 18.0746 24.8226 18.1133C24.4246 18.1521 24.0346 18.0763 23.6528 17.8859C23.271 17.6956 22.9256 17.3823 22.6168 16.9462C22.307 16.5088 22.1257 16.0784 22.0729 15.655C22.0202 15.2316 22.0786 14.8393 22.2482 14.478C22.4169 14.1154 22.6795 13.8079 23.0359 13.5555C23.3898 13.3049 23.7658 13.1602 24.1638 13.1215C24.5622 13.0805 24.9523 13.1552 25.3341 13.3455C25.7173 13.5349 26.0637 13.8484 26.3735 14.2858ZM25.5137 14.8947C25.313 14.6114 25.1013 14.4025 24.8787 14.268C24.6573 14.1326 24.4347 14.0688 24.2107 14.0764C23.9867 14.0841 23.7722 14.1605 23.5672 14.3057C23.3622 14.4508 23.2189 14.6278 23.1373 14.8365C23.0557 15.0453 23.0414 15.277 23.0943 15.5316C23.1485 15.7854 23.276 16.0539 23.4766 16.3373C23.6773 16.6206 23.8883 16.83 24.1096 16.9654C24.3323 17.0998 24.5556 17.1633 24.7796 17.1556C25.0036 17.148 25.2181 17.0715 25.4231 16.9264C25.6281 16.7812 25.7714 16.6042 25.853 16.3955C25.9345 16.1868 25.9482 15.9555 25.894 15.7018C25.8411 15.4471 25.7143 15.1781 25.5137 14.8947ZM29.6062 15.0874L27.4068 10.6916L28.3362 10.2266L30.1522 13.8562L32.0368 12.9132L32.4202 13.6795L29.6062 15.0874ZM42.9296 10.4334L42.4915 5.53759L44.4231 5.36474C44.7944 5.3315 45.1171 5.37411 45.3911 5.49256C45.665 5.60942 45.8817 5.78681 46.0412 6.02476C46.2021 6.26096 46.2971 6.54162 46.3262 6.86673C46.3553 7.19184 46.3108 7.48498 46.1928 7.74615C46.0748 8.00731 45.889 8.21913 45.6352 8.3816C45.3831 8.54392 45.0689 8.64192 44.6928 8.67558L43.4617 8.78575L43.3875 7.95624L44.4513 7.86104C44.6505 7.84321 44.8116 7.79426 44.9345 7.71418C45.0589 7.63236 45.1475 7.52724 45.2003 7.39882C45.2545 7.26867 45.2744 7.12311 45.26 6.96215C45.2454 6.79959 45.2001 6.66068 45.1239 6.54541C45.0492 6.4284 44.9435 6.34227 44.8068 6.28703C44.67 6.2302 44.5012 6.21077 44.3004 6.22874L43.6023 6.29121L43.9647 10.3408L42.9296 10.4334ZM48.6967 9.98032L48.9828 5.07329L50.9188 5.18618C51.2894 5.20779 51.6018 5.29252 51.856 5.44038C52.112 5.58673 52.3016 5.78451 52.4249 6.03372C52.5499 6.28142 52.6029 6.5674 52.584 6.89166C52.565 7.21752 52.4784 7.49375 52.3241 7.72037C52.17 7.94538 51.9559 8.11241 51.6818 8.22145C51.4094 8.33058 51.0847 8.37415 50.7078 8.35217L49.4115 8.27658L49.4601 7.44277L50.5887 7.50858C50.7867 7.52013 50.9528 7.50257 51.087 7.4559C51.2211 7.40922 51.3233 7.33344 51.3935 7.22855C51.4654 7.12375 51.506 6.99068 51.5154 6.82935C51.5249 6.66642 51.5002 6.52714 51.4412 6.41151C51.3838 6.29597 51.2905 6.20558 51.1613 6.14035C51.0338 6.07361 50.8702 6.03442 50.6705 6.02277L49.9709 5.98198L49.7342 10.0408L48.6967 9.98032ZM51.4769 7.90176L52.5663 10.206L51.421 10.1392L50.358 7.83652L51.4769 7.90176ZM56.4088 5.71118L55.5525 10.5514L54.5291 10.3703L55.3855 5.53013L56.4088 5.71118ZM59.3047 6.33429L60.5228 6.73298L60.7819 10.2927L60.8367 10.3106L63.1505 7.59306L64.3685 7.99175L62.8395 12.6632L61.8815 12.3497L62.8767 9.30909L62.8379 9.2964L60.6412 11.9185L59.9889 11.7049L59.7714 8.28007L59.7327 8.26737L58.7337 11.3194L57.7757 11.0058L59.3047 6.33429ZM65.703 13.8428L64.7246 13.3108L68.5632 9.803L69.7398 10.4427L68.8806 15.5704L67.9022 15.0385L68.6319 11.1188L68.5981 11.1005L65.703 13.8428ZM66.5647 12.1121L68.8757 13.3686L68.4882 14.0813L66.1772 12.8248L66.5647 12.1121ZM70.6039 16.5827L73.5923 12.6801L75.132 13.8592C75.4267 14.0849 75.6379 14.3302 75.7655 14.5952C75.8953 14.8599 75.9414 15.1299 75.9038 15.4054C75.8684 15.6806 75.7519 15.9471 75.5545 16.205C75.356 16.4642 75.1294 16.6443 74.8746 16.7455C74.6208 16.8453 74.3499 16.8636 74.0618 16.8002C73.7751 16.7378 73.4818 16.5918 73.182 16.3623L72.1511 15.5728L72.6589 14.9097L73.5564 15.597C73.7139 15.7176 73.8613 15.7962 73.9985 15.8328C74.1358 15.8694 74.2629 15.8639 74.3799 15.8164C74.4981 15.7699 74.6063 15.6825 74.7046 15.5542C74.8038 15.4247 74.8614 15.2955 74.8774 15.1667C74.8947 15.0388 74.8682 14.9117 74.7977 14.7852C74.7296 14.6584 74.6161 14.5342 74.4573 14.4126L73.9009 13.9865L71.429 17.2145L70.6039 16.5827ZM74.0714 16.4206L73.6813 18.9393L72.7705 18.2418L73.1815 15.7392L74.0714 16.4206ZM78.3884 16.4511L79.1945 17.2908L78.4436 19.5653L78.4769 19.6L80.7802 18.9425L81.5863 19.7823L78.0523 20.6896L76.7988 21.8929L76.0841 21.1484L77.3376 19.9451L78.3884 16.4511ZM85.495 27.5762C85.652 27.4613 85.7397 27.3139 85.758 27.134C85.7764 26.9541 85.7221 26.7567 85.5953 26.5417C85.5091 26.3956 85.4157 26.2845 85.315 26.2083C85.2157 26.1312 85.1144 26.087 85.011 26.0755C84.9084 26.0654 84.8117 26.0872 84.7207 26.1409C84.6433 26.1828 84.5865 26.2377 84.5503 26.3055C84.515 26.3746 84.4949 26.4524 84.4901 26.5388C84.4867 26.6244 84.4939 26.7168 84.5115 26.816C84.5305 26.9144 84.557 27.0158 84.5908 27.1204L84.7242 27.5544C84.7918 27.7634 84.8366 27.9655 84.8588 28.1605C84.8809 28.3555 84.875 28.5391 84.8411 28.7115C84.8072 28.8839 84.7403 29.0413 84.6404 29.1838C84.5414 29.3277 84.4041 29.4523 84.2285 29.5578C83.9686 29.7092 83.7049 29.7756 83.4375 29.7568C83.1723 29.7387 82.9149 29.6378 82.6655 29.4543C82.4182 29.2714 82.193 29.0076 81.9897 28.6631C81.7881 28.3213 81.6649 27.9927 81.62 27.6774C81.576 27.3634 81.6148 27.0748 81.7364 26.8118C81.8602 26.5493 82.0724 26.3247 82.3729 26.1382L82.8838 27.0043C82.7475 27.0977 82.653 27.2083 82.6002 27.336C82.5496 27.4644 82.5359 27.6034 82.5592 27.7531C82.5847 27.9034 82.643 28.0557 82.734 28.2101C82.8235 28.3617 82.9232 28.4803 83.0331 28.5659C83.1439 28.6529 83.2568 28.7042 83.372 28.7199C83.4871 28.7356 83.5956 28.7133 83.6976 28.6532C83.7927 28.5971 83.856 28.5217 83.8874 28.427C83.9197 28.3336 83.9268 28.2198 83.9089 28.0855C83.8918 27.9525 83.8563 27.7979 83.8025 27.6216L83.6463 27.0923C83.5226 26.6842 83.4921 26.3223 83.5548 26.0066C83.6175 25.691 83.8057 25.4415 84.1193 25.2584C84.3749 25.1058 84.639 25.0419 84.9119 25.0667C85.1856 25.0929 85.4477 25.1956 85.6983 25.3747C85.9489 25.5538 86.1652 25.7978 86.3473 26.1065C86.5327 26.4207 86.6407 26.7266 86.6714 27.0243C86.7029 27.3234 86.6615 27.5949 86.5472 27.8388C86.4329 28.0828 86.2508 28.2812 86.0011 28.4341L85.495 27.5762ZM88.5864 34.9948L88.2033 34.0159C88.3229 33.9484 88.4211 33.8679 88.4979 33.7743C88.5761 33.6801 88.6334 33.5761 88.6696 33.4622C88.7058 33.3484 88.7204 33.2276 88.7133 33.0998C88.7068 32.9734 88.6779 32.8447 88.6266 32.7136C88.5339 32.4767 88.3943 32.2933 88.2077 32.1636C88.0227 32.0333 87.7995 31.9634 87.5381 31.954C87.2782 31.944 86.9895 32.0012 86.6722 32.1254C86.3458 32.2531 86.0906 32.4088 85.9065 32.5925C85.723 32.7778 85.609 32.9804 85.5646 33.2006C85.5202 33.4207 85.5431 33.6463 85.6335 33.8772C85.6843 34.0068 85.7483 34.1201 85.8257 34.2169C85.9038 34.3153 85.9924 34.3948 86.0918 34.4556C86.1927 34.5158 86.3019 34.5555 86.4194 34.5748C86.5375 34.5956 86.662 34.5933 86.793 34.5678L87.1716 35.5485C86.9516 35.6054 86.7242 35.6213 86.4893 35.5964C86.2566 35.5724 86.0302 35.5055 85.8103 35.3957C85.5924 35.2868 85.393 35.1329 85.212 34.9339C85.0331 34.7359 84.8863 34.4901 84.7714 34.1966C84.6116 33.7883 84.5611 33.3871 84.6199 32.9929C84.6793 32.6003 84.8476 32.2423 85.1249 31.919C85.4028 31.5972 85.7905 31.339 86.2882 31.1442C86.7873 30.9488 87.2487 30.8765 87.6723 30.9272C88.096 30.9779 88.4624 31.1284 88.7716 31.3785C89.0823 31.628 89.3164 31.9539 89.4739 32.3562C89.5777 32.6215 89.6366 32.8819 89.6508 33.1375C89.6655 33.3947 89.6357 33.6391 89.5615 33.8709C89.4887 34.1021 89.3711 34.3131 89.2087 34.5038C89.0468 34.6961 88.8393 34.8597 88.5864 34.9948ZM86.3287 38.1872L91.1408 37.1848L91.3527 38.2022L89.3673 38.6158L89.7975 40.6811L91.783 40.2676L91.9944 41.2826L87.1823 42.285L86.9709 41.2699L88.9587 40.8559L88.5285 38.7905L86.5407 39.2046L86.3287 38.1872ZM90.2048 48.9321C89.6692 48.9528 89.2096 48.869 88.826 48.6805C88.4425 48.4936 88.1448 48.2297 87.9331 47.8888C87.723 47.5495 87.6095 47.1632 87.5927 46.7299C87.5758 46.2934 87.6598 45.8978 87.8446 45.5432C88.0294 45.1886 88.3058 44.9032 88.6737 44.6872C89.0417 44.4712 89.4926 44.3529 90.0267 44.3322C90.5623 44.3115 91.0219 44.3945 91.4054 44.5814C91.7889 44.7683 92.0857 45.0315 92.2958 45.3708C92.5075 45.7101 92.6218 46.098 92.6387 46.5344C92.6555 46.9677 92.5715 47.3617 92.3867 47.7163C92.2035 48.0725 91.928 48.3586 91.56 48.5746C91.1922 48.7922 90.7404 48.9114 90.2048 48.9321ZM90.164 47.8793C90.511 47.8658 90.8016 47.8025 91.0358 47.6894C91.27 47.5778 91.4451 47.4261 91.561 47.2343C91.6768 47.0425 91.7299 46.821 91.7202 46.57C91.7105 46.319 91.6404 46.1023 91.5101 45.92C91.3797 45.7377 91.1934 45.5992 90.9512 45.5045C90.709 45.4114 90.4144 45.3716 90.0674 45.385C89.7205 45.3985 89.4299 45.461 89.1956 45.5725C88.9614 45.6857 88.7864 45.8382 88.6705 46.03C88.5546 46.2218 88.5016 46.4433 88.5113 46.6943C88.521 46.9453 88.5911 47.162 88.7214 47.3443C88.8518 47.5266 89.038 47.6643 89.2802 47.7574C89.5225 47.8521 89.8171 47.8927 90.164 47.8793ZM89.5901 56.0081C89.0589 55.9363 88.6206 55.7745 88.2752 55.5228C87.9296 55.2726 87.6818 54.9614 87.5319 54.5891C87.3834 54.2187 87.3382 53.8186 87.3963 53.3889C87.4548 52.956 87.6056 52.5809 87.8487 52.2633C88.0919 51.9458 88.4132 51.7124 88.8129 51.563C89.2125 51.4135 89.6771 51.3746 90.2067 51.4462C90.7379 51.518 91.1763 51.679 91.5219 51.9291C91.8675 52.1793 92.1146 52.4896 92.2631 52.86C92.4132 53.2307 92.459 53.6325 92.4005 54.0653C92.3424 54.4951 92.1918 54.8687 91.9487 55.1862C91.707 55.5055 91.3863 55.7398 90.9866 55.8893C90.5868 56.0403 90.1213 56.0799 89.5901 56.0081ZM89.7312 54.9639C90.0753 55.0104 90.3724 54.9981 90.6226 54.927C90.8726 54.8575 91.0712 54.7382 91.2184 54.5692C91.3655 54.4001 91.4559 54.1912 91.4896 53.9422C91.5232 53.6933 91.4915 53.4678 91.3945 53.2658C91.2975 53.0637 91.1378 52.8952 90.9155 52.7602C90.693 52.6268 90.4097 52.5369 90.0656 52.4903C89.7215 52.4438 89.4245 52.4553 89.1745 52.5249C88.9243 52.596 88.7256 52.7161 88.5784 52.8851C88.4313 53.0541 88.3409 53.2631 88.3072 53.5121C88.2736 53.761 88.3053 53.9865 88.4023 54.1885C88.4993 54.3905 88.6591 54.5582 88.8816 54.6917C89.1039 54.8267 89.3871 54.9174 89.7312 54.9639ZM86.7992 57.8259L91.515 59.2125L91.2218 60.2095L87.3281 59.0647L86.7337 61.0864L85.9117 60.8447L86.7992 57.8259Z" fill="white"/>
<path d="M11.2607 72.3949L15.2274 69.6176L16.3394 71.2059C16.5438 71.4977 16.6709 71.7714 16.7209 72.027C16.7709 72.2825 16.7534 72.5131 16.6685 72.7189C16.5848 72.9237 16.4436 73.0957 16.2447 73.2349C16.0898 73.3434 15.9318 73.4078 15.7709 73.4281C15.6113 73.4475 15.4561 73.4291 15.3053 73.3731C15.1566 73.3175 15.0184 73.2314 14.8907 73.1149L14.852 73.1421C14.9513 73.2977 15.0077 73.4689 15.0211 73.6557C15.0355 73.8439 15.0006 74.029 14.9164 74.2111C14.8335 74.3923 14.6946 74.5511 14.4996 74.6876C14.2891 74.835 14.0646 74.9142 13.8261 74.9254C13.5898 74.9369 13.3529 74.8747 13.1154 74.7389C12.8779 74.6031 12.6552 74.3867 12.4473 74.0897L11.2607 72.3949ZM12.5335 72.7535L13.0122 73.4372C13.1759 73.671 13.3397 73.8102 13.5039 73.855C13.6693 73.8989 13.8269 73.8684 13.9767 73.7635C14.0865 73.6867 14.1648 73.5924 14.2116 73.4807C14.2585 73.369 14.2715 73.2474 14.2505 73.1158C14.2305 72.9855 14.1735 72.8532 14.0795 72.7189L13.5872 72.0158L12.5335 72.7535ZM14.1547 71.6185L14.59 72.2402C14.6705 72.3551 14.7619 72.4431 14.8643 72.5042C14.9689 72.5657 15.0768 72.596 15.1878 72.5952C15.2998 72.5957 15.408 72.5594 15.5126 72.4861C15.656 72.3858 15.7358 72.2539 15.7522 72.0904C15.7695 71.9282 15.7131 71.7541 15.5829 71.5682L15.1367 70.9309L14.1547 71.6185ZM18.9889 74.7314L15.3282 77.9013L14.658 77.1274L18.3187 73.9575L18.9889 74.7314ZM16.8203 79.5354L20.1776 76.0458L20.9154 76.7556L18.1434 79.6369L19.6394 81.0762L19.0541 81.6845L16.8203 79.5354ZM24.3999 79.9125L21.399 83.7129L20.5955 83.0785L23.5964 79.278L24.3999 79.9125ZM29.2478 83.1287L26.6724 87.2294L25.9236 86.7591L25.7605 83.0577L25.7304 83.0388L24.1095 85.6198L23.2425 85.0753L25.8179 80.9746L26.5788 81.4524L26.7291 85.143L26.7652 85.1657L28.3849 82.5867L29.2478 83.1287ZM33.0864 86.7414C33.1024 86.6227 33.1007 86.5109 33.0814 86.406C33.0627 86.2997 33.0261 86.2009 32.9714 86.1097C32.9189 86.0178 32.8488 85.9344 32.7611 85.8597C32.6748 85.7857 32.5711 85.722 32.4499 85.6687C32.2233 85.5691 31.9995 85.5378 31.7783 85.5749C31.5585 85.6126 31.3537 85.7181 31.164 85.8912C30.9749 86.0629 30.8124 86.3032 30.6767 86.612C30.541 86.9208 30.4724 87.204 30.4711 87.4617C30.4697 87.7194 30.5298 87.943 30.6514 88.1325C30.7737 88.3205 30.9517 88.4659 31.1855 88.5687C31.3976 88.6619 31.5952 88.704 31.7782 88.6949C31.9634 88.685 32.1261 88.6283 32.2663 88.5246C32.408 88.4216 32.5204 88.2756 32.6035 88.0866L32.7816 88.1984L31.6388 87.6961L31.949 86.9904L33.804 87.8058L33.5585 88.3643C33.3872 88.7539 33.1578 89.0525 32.8702 89.2602C32.5833 89.4664 32.2622 89.5818 31.907 89.6064C31.5525 89.6296 31.189 89.5594 30.8167 89.3958C30.4011 89.2131 30.0763 88.961 29.8423 88.6394C29.6089 88.3164 29.4787 87.9467 29.4517 87.5302C29.4268 87.1129 29.5171 86.6705 29.7227 86.2029C29.8806 85.8436 30.0734 85.5461 30.301 85.3104C30.5306 85.0738 30.7831 84.899 31.0584 84.7858C31.3337 84.6727 31.6194 84.6201 31.9156 84.628C32.2117 84.6359 32.5062 84.7042 32.7991 84.833C33.0502 84.9434 33.2678 85.0829 33.4519 85.2517C33.6367 85.419 33.7836 85.6058 33.8926 85.8121C34.0031 86.0191 34.0714 86.2377 34.0976 86.4679C34.1245 86.6967 34.1049 86.9274 34.0388 87.16L33.0864 86.7414ZM39.1725 87.1367L40.1617 87.4005L39.3516 90.439C39.2606 90.7802 39.0995 91.057 38.8684 91.2694C38.6387 91.4822 38.3593 91.6215 38.0302 91.6871C37.7016 91.7512 37.3438 91.7316 36.9569 91.6285C36.5685 91.5249 36.2478 91.3636 35.9946 91.1443C35.7419 90.9236 35.5689 90.6638 35.4757 90.3649C35.3825 90.0659 35.3813 89.7459 35.4723 89.4047L36.2824 86.3662L37.2717 86.6299L36.4841 89.5839C36.4366 89.7621 36.4332 89.9309 36.4739 90.0902C36.5161 90.2499 36.5983 90.3885 36.7203 90.5058C36.8424 90.6232 36.9986 90.7073 37.189 90.758C37.3809 90.8092 37.5582 90.8141 37.721 90.7726C37.8853 90.7316 38.0248 90.6522 38.1394 90.5343C38.2555 90.4168 38.3374 90.2689 38.3849 90.0907L39.1725 87.1367ZM42.1719 92.6999L41.0816 92.5775L43.2827 87.9517L44.5939 88.0988L45.7129 93.0971L44.6226 92.9748L43.8337 89.1271L43.7961 89.1228L42.1719 92.6999ZM42.316 90.8007L44.8912 91.0896L44.8021 91.8838L42.2269 91.5949L42.316 90.8007ZM47.8394 93.2403L47.754 88.3987L48.7777 88.3807L48.8482 92.3783L50.9238 92.3417L50.9387 93.1857L47.8394 93.2403ZM54.897 88.8369L54.7282 88.0099L58.6249 87.2145L58.7937 88.0416L57.3411 88.3381L58.1407 92.2556L57.1492 92.4579L56.3496 88.5404L54.897 88.8369ZM61.9737 91.2529L60.9386 91.6165L60.9109 86.4938L62.1557 86.0566L65.3355 90.072L64.3004 90.4356L61.9179 87.313L61.8822 87.3255L61.9737 91.2529ZM61.2782 89.4799L63.7232 88.621L63.988 89.375L61.5431 90.2339L61.2782 89.4799ZM67.3991 89.2226L65.1288 84.9455L66.0331 84.4654L66.9698 86.2302L68.8055 85.2557L67.8688 83.491L68.771 83.0121L71.0414 87.2892L70.1392 87.7681L69.2013 86.0013L67.3656 86.9758L68.3034 88.7426L67.3991 89.2226ZM73.1269 86.0691L70.3046 82.1343L72.9099 80.2656L73.4018 80.9515L71.6285 82.2235L72.301 83.1611L73.9014 82.0131L74.3934 82.699L72.793 83.847L73.9588 85.4724L73.1269 86.0691ZM74.9671 78.6142L78.1647 82.2506L77.3959 82.9267L74.1983 79.2902L74.9671 78.6142ZM80.994 79.4259L79.8319 80.6893L76.2678 77.4112L77.4395 76.1373C77.7693 75.7788 78.1244 75.5358 78.5051 75.4084C78.8846 75.2798 79.2712 75.2681 79.665 75.3733C80.0598 75.4773 80.4422 75.6995 80.8123 76.0399C81.1836 76.3813 81.438 76.745 81.5758 77.1308C81.7145 77.5154 81.7352 77.9039 81.6378 78.2962C81.5415 78.6873 81.3269 79.0639 80.994 79.4259ZM79.8793 79.3419L80.3195 78.8634C80.5244 78.6406 80.6573 78.4169 80.7182 78.1924C80.779 77.9656 80.7611 77.7371 80.6644 77.5069C80.5677 77.2744 80.3865 77.036 80.1208 76.7917C79.8575 76.5494 79.6065 76.3903 79.3679 76.3144C79.1304 76.2373 78.9024 76.2385 78.6837 76.3179C78.465 76.3973 78.2532 76.5484 78.0483 76.7712L77.6066 77.2515L79.8793 79.3419ZM84.0557 75.9689L83.5596 75.618L82.1866 71.6873L80.7886 73.6641L80.0994 73.1767L82.2402 70.1498L82.7363 70.5006L84.1079 74.4333L85.5073 72.4546L86.1964 72.942L84.0557 75.9689Z" fill="white"/>
<path d="M10.2396 66.6525L8.94192 67.5865L9.45342 66.0674L8.15234 65.1299H9.74522L10.2396 63.6108L10.7339 65.1299H12.3268L11.0257 66.0674L11.5372 67.5865L10.2396 66.6525Z" fill="white"/>
<path d="M87.7591 67.2482L86.4614 68.1822L86.973 66.6631L85.6719 65.7256H87.2648L87.7591 64.2065L88.2534 65.7256H89.8463L88.5452 66.6631L89.0567 68.1822L87.7591 67.2482Z" fill="white"/>
<path d="M36.8763 9.79894L35.5786 10.733L36.0901 9.21388L34.7891 8.27642H36.3819L36.8763 6.75732L37.3706 8.27642H38.9635L37.6624 9.21388L38.1739 10.733L36.8763 9.79894Z" fill="white"/>
</svg>
